<svg xmlns="http://www.w3.org/2000/svg" viewBox="0 0 554.98 534.09"><defs><style>.cls-1{fill:#bdc0f4;}</style></defs><title>Asset 1</title><g id="Layer_2" data-name="Layer 2"><g id="Layer_1-2" data-name="Layer 1"><path class="cls-1" d="M.94,354.39C-6.25,321,29.3,331.18,52.66,306.31s26.66-21.77,50-46.64,19.56-28.44,42.93-53.3,19.13-28.85,42.49-53.72,28.69-19.86,52.06-44.72,18.77-29.19,42.14-54.06,15-57,48.93-53.62S353.11,32,371.3,61s19.27,28.33,37.46,57.34,21.12,27.16,39.31,56.17,1.74,39.32,19.92,68.33,31,21,49.2,50S560,321,554.1,354.73C548,390,517,371.48,489.7,394.62s-19.76,32-47,55.13-29.21,20.86-56.49,44S366,531,330.28,533.72c-37.47,2.89-33.15-11.81-65.86-30.31S232.78,483,200.07,464.5s-34.26-15.79-67-34.3S104,405.14,67.9,394.58C28.08,382.93,8.86,391.13.94,354.39Z"/></g></g></svg>