<svg xmlns="http://www.w3.org/2000/svg" viewBox="0 0 704.18 304.85"><defs><style>.cls-1{fill:#ff9028;}</style></defs><title>Asset 2</title><g id="Layer_2" data-name="Layer 2"><g id="Layer_2-2" data-name="Layer 2"><path class="cls-1" d="M0,133.94c0-35.83,47.78-9.83,81.28-22.54S113.48,95.27,147,82.56s31.09-19.08,64.59-31.8,34.68-9.59,68.18-22.3S312.34,0,348.17,0c38.07,0,33.24,27,69.12,39.68s40.95-1.59,76.84,11.12,37.22,8.94,73.11,21.66,36.33,11.46,72.22,24.18,55.65.93,63.79,38.12c7.11,32.52-27.63,10.73-57.54,25.36s-28.4,17.68-58.31,32.31S555.94,203.88,526,218.51s-25.92,22.78-55.82,37.41-30.39,13.64-60.3,28.27-28.27,22-61.53,20.47c-37.77-1.75-28.61-22.47-62.11-40S249.49,253.36,216,235.81s-39.85-5.45-73.34-23-26.35-31.95-63.28-40.08C32.57,162.42,0,171.76,0,133.94Z"/></g></g></svg>