<svg xmlns="http://www.w3.org/2000/svg" viewBox="0 0 691.55 502.11"><defs><style>.cls-1{fill:#13586c;}</style></defs><title>Asset 3</title><g id="Layer_2" data-name="Layer 2"><g id="Layer_3" data-name="Layer 3"><path class="cls-1" d="M691.45,192.77c2.33,36.51-35.29,18.51-64.85,40.07s-32.88,17-62.44,38.56-25.72,26.82-55.28,48.38-25.28,27.42-54.84,49S419.11,383,389.55,404.51,364.63,432.43,335.06,454s-25.46,52.56-61.71,47.59c-35.94-4.92-26.26-31.57-48.51-60.23S201.33,413.69,179.08,385s-25.67-26-47.92-54.65-3.11-43.51-25.35-72.17S68.63,241.15,46.38,212.5-5.32,185.6.83,149.85c5.63-32.77,40.24-5.74,70-20.62s23.24-27.85,53-42.73S155.19,75,184.93,60.07s33.46-7.44,63.19-22.32S271.47-.54,304.72,0c35.68.59,31.66,18.55,63.61,34.45S402,46.86,434,62.76s32.62,14.56,64.57,30.46,32.29,15.23,64.24,31.13,28.5,20.08,63.39,27.6C666.14,160.56,689.17,157.15,691.45,192.77Z"/></g></g></svg>