<svg xmlns="http://www.w3.org/2000/svg" viewBox="0 0 525.69 474.88"><defs><style>.cls-1{fill:#616197;}</style></defs><title>Asset 4</title><g id="Layer_2" data-name="Layer 2"><g id="Layer_4" data-name="Layer 4"><path class="cls-1" d="M360.79,474.09c-36.83,6.42-28.42-27.51-58.26-50s-27.25-26-57.09-48.49S212.61,357,182.77,334.47s-33.17-18.12-63-40.65-25.66-28.08-55.5-50.61S-2.23,238.39.11,201.07c2.42-38.69,31.9-25.25,64.47-46.28s32.8-20.67,65.37-41.7S161.86,91,194.43,70s30.78-23.81,63.35-44.84S289.06-.56,327.83.05C360.4.56,355.6,8.94,379.7,30.86s23.95,22.08,48.06,44,16.12,30.7,40.23,52.62,52,6,57,38.15c5.24,34.09-19,31.81-35,62.34s-21.66,27.58-37.7,58.11S442,319.68,426,350.21,400.42,377,392,410.4C382.67,447.75,394.77,468.16,360.79,474.09Z"/></g></g></svg>