<svg xmlns="http://www.w3.org/2000/svg" viewBox="0 0 70.62 70.62"><defs><style>.cls-1{opacity:0.87;}</style></defs><title>Asset 5</title><g id="Layer_2" data-name="Layer 2"><g id="Layer_1-2" data-name="Layer 1"><g class="cls-1"><path d="M16.89,24.41h1s-.21-.15-.21-.65c0-.76.79-1.25,1.6-1.25a1.69,1.69,0,0,1,1.66.93l-.54.57a1.14,1.14,0,0,0-1-.72c-.49,0-.82.24-.82.67a.54.54,0,0,0,.19.45h1.42V25H18.7V29h-1V25h-.83Z"/><path d="M21.44,22.59h1v.79h-1Zm0,1.82h1V29h-1Z"/><path d="M26.85,29H25.77l-2.1-4.55h1.12l1.53,3.84,1.54-3.84H29Z"/><path d="M34.66,27.42a2,2,0,0,1-2.26,1.66,2.35,2.35,0,0,1-2.54-2.35,2.41,2.41,0,0,1,2.52-2.51,2.06,2.06,0,0,1,2.23,2c0,.28,0,.55,0,.55l-3.72-.07a1.47,1.47,0,0,0,1.55,1.58c1.18,0,1.3-.88,1.3-.88Zm-.9-1.18A1.24,1.24,0,0,0,32.41,25a1.51,1.51,0,0,0-1.53,1.3Z"/><path d="M21.72,37.85h-.47l-.33-.79a1.94,1.94,0,0,1-1.77.9,2.44,2.44,0,0,1-.2-4.85,1.92,1.92,0,0,1,1.79,1.24V31.57a5.94,5.94,0,0,0,1-.09Zm-3.83-2.33a1.51,1.51,0,0,0,1.56,1.66c1,0,1.29-.55,1.29-.55V35.09a1.4,1.4,0,0,0-1.42-1.19A1.47,1.47,0,0,0,17.89,35.52Z"/><path d="M28.12,36.31A2,2,0,0,1,25.86,38a2.34,2.34,0,0,1-2.54-2.34,2.41,2.41,0,0,1,2.53-2.51,2,2,0,0,1,2.22,2c0,.29,0,.56,0,.56l-3.72-.07a1.47,1.47,0,0,0,1.55,1.57c1.18,0,1.3-.87,1.3-.87Zm-.9-1.19a1.24,1.24,0,0,0-1.35-1.22,1.52,1.52,0,0,0-1.53,1.31Z"/><path d="M34.55,32.54v.79a2.59,2.59,0,0,0-.52,0,1.44,1.44,0,0,0-.74.15,1.55,1.55,0,0,1,.91,1.34c0,1-.9,1.58-2.32,1.58a3.37,3.37,0,0,1-.79-.08c-.29,0-.62.17-.62.47s.28.44.73.44h1.63c1.18,0,1.65.65,1.65,1.13v.14c0,.65-.6,1.3-2.31,1.3H31.11c-1.52,0-1.83-.64-1.83-1.06s.39-.88,1.26-.88v-.05c-.62,0-1.14-.34-1.14-.78,0-.66.88-.82,1.21-.82v0a1.42,1.42,0,0,1-1.1-1.38c0-.81.66-1.65,2.34-1.65a3,3,0,0,1,1.17.2,1.1,1.1,0,0,1,1-.83A2.25,2.25,0,0,1,34.55,32.54Zm-3.27,5.29s-.94.23-.94.82c0,.43.38.6,1.49.6s1.61-.16,1.61-.62S33.23,38,32.6,38A7.53,7.53,0,0,1,31.28,37.83Zm.57-2.08c.95,0,1.29-.51,1.29-1s-.34-1-1.29-1-1.29.51-1.29,1S30.91,35.75,31.85,35.75Z"/><path d="M37,37.85H36V33.3h.47l.41,1.35c.1-.48.38-1.54,1.41-1.54,1.49,0,.93,1.88.93,1.88l-.9.19S39,33.9,38,33.9c-.71,0-1,1-1,1.25Z"/><path d="M45.17,36.31A2,2,0,0,1,42.9,38a2.33,2.33,0,0,1-2.53-2.34,2.4,2.4,0,0,1,2.52-2.51,2.06,2.06,0,0,1,2.23,2,4.33,4.33,0,0,1,0,.56l-3.72-.07a1.48,1.48,0,0,0,1.56,1.57c1.18,0,1.3-.87,1.3-.87Zm-.9-1.19a1.24,1.24,0,0,0-1.35-1.22,1.51,1.51,0,0,0-1.53,1.31Z"/><path d="M51.24,36.31S51.09,38,49,38a2.33,2.33,0,0,1-2.53-2.34A2.4,2.4,0,0,1,49,33.11a2.06,2.06,0,0,1,2.23,2,4.33,4.33,0,0,1,0,.56l-3.72-.07A1.47,1.47,0,0,0,49,37.18c1.19,0,1.31-.87,1.31-.87Zm-.9-1.19A1.24,1.24,0,0,0,49,33.9a1.5,1.5,0,0,0-1.52,1.31Z"/><path d="M21.85,45s0,1.88-2.27,1.88A2.33,2.33,0,0,1,17,44.43,2.38,2.38,0,0,1,19.59,42a2,2,0,0,1,2.16,2.11l-.84.18a1.24,1.24,0,0,0-1.32-1.49,1.48,1.48,0,0,0-1.51,1.62c0,1.07.53,1.66,1.51,1.66A1.16,1.16,0,0,0,20.92,45Z"/><path d="M27.15,43.92A1.05,1.05,0,0,0,26,42.79,1.49,1.49,0,0,0,24.46,44v2.76h-1V40.46a4.45,4.45,0,0,0,1-.1v3A2.07,2.07,0,0,1,26.35,42a1.68,1.68,0,0,1,1.78,1.92v2.82h-1Z"/><path d="M33.83,45.64c0,.29.09.43.4.43a.91.91,0,0,0,.6-.36l.21.64a1.08,1.08,0,0,1-2-.4l0-1s-.74,1.93-2.26,1.93a.94.94,0,0,1-1-1c0-.76.75-1.89,3.19-2.18v-.23c0-.3-.27-.64-1-.64a1.54,1.54,0,0,0-1.36.72L30,43.06A2.13,2.13,0,0,1,32,42c1.36,0,1.95.73,1.93,1.58Zm-2.7.43A2.69,2.69,0,0,0,33,44.45l0-.34c-1.83.38-2.26,1.19-2.26,1.57A.37.37,0,0,0,31.13,46.07Z"/><path d="M40,43.92a1.06,1.06,0,0,0-1.19-1.13A1.52,1.52,0,0,0,37.28,44v2.76h-1V42.18h.47l.41,1.35a2.15,2.15,0,0,1,2-1.54A1.68,1.68,0,0,1,41,43.91v2.82H40Z"/><path d="M47.7,41.43v.79a2.18,2.18,0,0,0-.52-.06,1.51,1.51,0,0,0-.75.15,1.56,1.56,0,0,1,.92,1.34c0,1-.9,1.59-2.32,1.59a3.37,3.37,0,0,1-.79-.08c-.29,0-.62.16-.62.47s.28.44.73.44H46c1.18,0,1.65.65,1.65,1.12v.14c0,.66-.6,1.31-2.31,1.31H44.26c-1.52,0-1.83-.64-1.83-1.07s.39-.88,1.26-.88v0c-.62,0-1.14-.35-1.14-.78,0-.67.88-.82,1.21-.82v0a1.43,1.43,0,0,1-1.1-1.39c0-.81.66-1.65,2.34-1.65a2.88,2.88,0,0,1,1.17.21,1.1,1.1,0,0,1,1-.83A2.37,2.37,0,0,1,47.7,41.43Zm-3.27,5.29s-.94.22-.94.82c0,.42.38.6,1.49.6s1.61-.17,1.61-.63-.21-.61-.84-.66A7.38,7.38,0,0,1,44.43,46.72ZM45,44.63c1,0,1.29-.5,1.29-1s-.34-1-1.29-1-1.29.51-1.29,1S44.05,44.63,45,44.63Z"/><path d="M53.62,45.19a2,2,0,0,1-2.26,1.66,2.34,2.34,0,0,1-2.53-2.35A2.4,2.4,0,0,1,51.35,42a2.06,2.06,0,0,1,2.23,2,4.28,4.28,0,0,1,0,.55l-3.72-.07a1.48,1.48,0,0,0,1.56,1.58c1.18,0,1.3-.88,1.3-.88ZM52.72,44a1.24,1.24,0,0,0-1.34-1.22,1.51,1.51,0,0,0-1.53,1.3Z"/></g><path d="M5.68,70.62,0,5.68,64.94,0l5.68,64.94Zm-4.6-64,5.51,63,63-5.51L64,1.08Z"/></g></g></svg>