<svg xmlns="http://www.w3.org/2000/svg" viewBox="0 0 79.37 69.44"><defs><style>.cls-1{fill:#77ffbc;}</style></defs><title>Asset 6</title><g id="Layer_2" data-name="Layer 2"><g id="Layer_1-2" data-name="Layer 1"><path class="cls-1" d="M79.37,33.53c0,6.75-1.92,15.08-5.07,20.53-3.25,5.61-12,7.2-17.65,10.45a34.59,34.59,0,0,1-17.89,4.93c-6.74,0-13-.71-18.5-3.86C14.65,62.33,11,57.08,7.7,51.47,4.55,46,0,40.28,0,33.53A40,40,0,0,1,5.49,14.32C8.74,8.71,15.42,6.07,21,2.83,26.48-.32,32,.05,38.76.05S51.2-.58,56.64,2.57c5.62,3.25,13.63,5.28,16.88,10.9C76.67,18.91,79.37,26.79,79.37,33.53Z"/></g></g></svg>