<svg xmlns="http://www.w3.org/2000/svg" viewBox="0 0 684.14 684.14"><defs><style>.cls-1{fill:#e7dff5;}.cls-2{fill:#77ffbc;}.cls-3{fill:#022b61;stroke:#022b61;stroke-miterlimit:10;stroke-width:60px;}</style></defs><title>Asset 3</title><g id="Layer_2" data-name="Layer 2"><g id="Layer_3" data-name="Layer 3"><rect class="cls-1" width="684.14" height="684.14" rx="100"/><path class="cls-2" d="M657.16,334.28c0,58.14-15.3,130.06-40.41,177-25.89,48.43-96,62.17-140.72,90.2C432.65,628.65,387.21,644,333.48,644S229.41,637.85,186,610.69c-44.76-28-74.24-73.3-100.14-121.73C60.78,442,24.49,392.42,24.49,334.28S43.16,215.51,68.26,168.56c25.9-48.43,79.15-71.16,123.91-99.19,43.39-27.16,87.59-23.92,141.31-23.92S432.6,40,476,67.15c44.76,28,108.63,45.59,134.52,94C635.61,208.13,657.16,276.13,657.16,334.28Z"/><path class="cls-3" d="M153.26,578.6,115.93,151.86l426.74-37.34L580,541.26ZM123.05,157.83l36.19,413.65,413.64-36.19L536.69,121.64Z"/></g></g></svg>