<svg xmlns="http://www.w3.org/2000/svg" viewBox="0 0 611.16 597.37"><defs><style>.cls-1{fill:#022b61;}.cls-2{fill:#6c84ff;}</style></defs><title>Asset 1</title><g id="Layer_2" data-name="Layer 2"><g id="Layer_3" data-name="Layer 3"><path class="cls-1" d="M611.16,294.26c0,57.6-35.8,92.54-65.27,138.62s-31.79,122.87-82,149.18c-47.4,24.83-112.26-14.3-170.44-14.3S166.14,615,118.73,590.15C68.49,563.84,50.16,492,20.64,445.87s-18.73-94-18.73-151.61S1,195,30.43,148.9s68.81-65.52,119-91.83c47.4-24.82,85.75-33.28,143.94-33.28S415.62-16.78,463,8c50.24,26.31,71.65,89.74,101.17,135.88S611.16,236.66,611.16,294.26Z"/><path class="cls-2" d="M422.22,151.23H217.35L191,276.26s45.94-42.17,123.52-42.17c93.4,0,162.69,56.48,162.69,135.57,0,86.62-70.8,144.61-178.5,144.61-159.68,0-183.78-109.21-183.78-109.21l54.23-31.63s9.79,91.13,120.51,91.13c82.85,0,119.75-37.66,119.75-88.88,0-48.2-38.41-93.39-117.49-93.39-70.8,0-108.46,33.89-108.46,33.89H133l36.16-214.66H422.22Z"/></g></g></svg>