<svg xmlns="http://www.w3.org/2000/svg" viewBox="0 0 684.14 684.14"><defs><style>.cls-1{fill:#e7dff5;}.cls-2{fill:#77ffbc;}.cls-3{fill:#022b61;}</style></defs><title>Asset 2</title><g id="Layer_2" data-name="Layer 2"><g id="Layer_3" data-name="Layer 3"><rect class="cls-1" width="684.14" height="684.14"/><path class="cls-2" d="M660.16,343.14c0,53.72-15.3,120.18-40.41,163.57-25.89,44.76-96,57.45-140.72,83.35-43.38,25.1-88.82,39.29-142.55,39.29S232.41,623.67,189,598.56c-44.76-25.89-74.24-67.73-100.14-112.49-25.1-43.38-61.39-89.2-61.39-142.93S46.16,233.39,71.26,190c25.9-44.76,79.15-65.76,123.91-91.66,43.39-25.1,87.59-22.1,141.31-22.1s99.12-5,142.5,20.05c44.76,25.9,108.63,42.13,134.52,86.89C638.61,226.56,660.16,289.41,660.16,343.14Z"/><path class="cls-3" d="M101.22,633.6,55.93,115.93,573.6,70.64l45.28,517.67ZM64.56,123.18,108.47,625l501.78-43.91L566.35,79.27Z"/></g></g></svg>